<svg width="60" height="60" viewBox="0 0 60 60" fill="none" xmlns="http://www.w3.org/2000/svg">
<path d="M51.525 47.975C53.0918 45.8749 54.167 43.4497 54.6712 40.8786C55.1754 38.3074 55.0959 35.6558 54.4384 33.1195C53.7809 30.5831 52.5623 28.2268 50.8725 26.2244C49.1826 24.222 47.0647 22.6245 44.675 21.55C44.1545 18.5553 42.9582 15.7186 41.1771 13.2554C39.396 10.7923 37.0768 8.76758 34.3959 7.33509C31.715 5.90259 28.7428 5.10002 25.7052 4.98835C22.6676 4.87669 19.6445 5.45887 16.8656 6.69066C14.0868 7.92245 11.6252 9.77144 9.66802 12.0971C7.71084 14.4228 6.30951 17.1641 5.57052 20.1125C4.83153 23.0609 4.77432 26.139 5.40323 29.1129C6.03214 32.0868 7.33063 34.8782 9.20004 37.275L5.72504 40.725C5.37814 41.0766 5.14315 41.523 5.04972 42.008C4.95628 42.493 5.00859 42.9947 5.20004 43.45C5.38759 43.9066 5.70608 44.2974 6.11538 44.5732C6.52468 44.849 7.00647 44.9975 7.50004 45H21.725C23.1417 47.9865 25.3751 50.5108 28.1669 52.2805C30.9587 54.0502 34.1946 54.9931 37.5 55H52.5C52.9936 54.9975 53.4754 54.849 53.8847 54.5732C54.294 54.2974 54.6125 53.9066 54.8 53.45C54.9915 52.9947 55.0438 52.493 54.9504 52.008C54.8569 51.523 54.6219 51.0766 54.275 50.725L51.525 47.975ZM20 37.5C20.0035 38.3372 20.0703 39.1729 20.2 40H13.525L14.4 39.15C14.6344 38.9176 14.8203 38.6411 14.9473 38.3365C15.0742 38.0318 15.1395 37.705 15.1395 37.375C15.1395 37.045 15.0742 36.7182 14.9473 36.4136C14.8203 36.1089 14.6344 35.8324 14.4 35.6C12.9989 34.2143 11.8882 32.5631 11.1327 30.7431C10.3772 28.923 9.99213 26.9706 10 25C10 21.0218 11.5804 17.2065 14.3934 14.3934C17.2065 11.5804 21.0218 10 25 10C28.1042 9.98136 31.1363 10.936 33.6699 12.7297C36.2035 14.5234 38.1112 17.066 39.125 20H37.5C32.8588 20 28.4076 21.8438 25.1257 25.1256C21.8438 28.4075 20 32.8587 20 37.5ZM46.35 50L46.475 50.125H37.5C34.6084 50.1198 31.808 49.1123 29.5758 47.274C27.3437 45.4357 25.818 42.8804 25.2585 40.0434C24.6991 37.2063 25.1406 34.2631 26.5077 31.7151C27.8749 29.167 30.0832 27.1718 32.7564 26.0693C35.4297 24.9667 38.4024 24.8251 41.1684 25.6686C43.9343 26.512 46.3222 28.2883 47.9254 30.6949C49.5286 33.1014 50.2478 35.9894 49.9605 38.8668C49.6733 41.7441 48.3973 44.4329 46.35 46.475C45.879 46.9366 45.6094 47.5656 45.6 48.225C45.6014 48.5558 45.6684 48.883 45.7971 49.1877C45.9259 49.4924 46.1138 49.7685 46.35 50Z" fill="#2B3FA8"/>
</svg>
