<svg width="60" height="60" viewBox="0 0 60 60" fill="none" xmlns="http://www.w3.org/2000/svg">
<path d="M27.5 7.50005H11.25C10.2554 7.50005 9.30161 7.89513 8.59835 8.5984C7.89509 9.30166 7.5 10.2555 7.5 11.25V38.75C7.5 39.7446 7.89509 40.6984 8.59835 41.4017C9.30161 42.105 10.2554 42.5 11.25 42.5H48.75C49.7446 42.5 50.6984 42.105 51.4016 41.4017C52.1049 40.6984 52.5 39.7446 52.5 38.75V27.5L27.5 7.50005ZM30 42.5V52.5V42.5ZM17.5 52.5H42.5H17.5ZM41.625 7.50005C39.3475 7.50005 37.5 9.2938 37.5 11.5063C37.5 15.5113 42.375 19.1525 45 20C47.625 19.1525 52.5 15.5125 52.5 11.5063C52.5 9.2938 50.6538 7.50005 48.375 7.50005C47.7179 7.49693 47.0695 7.6496 46.4828 7.94554C45.8962 8.24148 45.388 8.67226 45 9.20255C44.612 8.67226 44.1038 8.24148 43.5172 7.94554C42.9305 7.6496 42.2821 7.49693 41.625 7.50005V7.50005Z" stroke="#2B3FA8" stroke-width="4" stroke-linecap="round" stroke-linejoin="round"/>
</svg>
