<svg width="24" height="24" viewBox="0 0 24 24" fill="none" xmlns="http://www.w3.org/2000/svg">
<path d="M16.1999 10.1999C16.1999 9.88164 16.0735 9.57642 15.8484 9.35137C15.6234 9.12633 15.3182 8.9999 14.9999 8.9999C14.6816 8.9999 14.3764 9.12633 14.1514 9.35137C13.9263 9.57642 13.7999 9.88164 13.7999 10.1999C13.7999 10.5182 13.9263 10.8234 14.1514 11.0484C14.3764 11.2735 14.6816 11.3999 14.9999 11.3999C15.3182 11.3999 15.6234 11.2735 15.8484 11.0484C16.0735 10.8234 16.1999 10.5182 16.1999 10.1999ZM10.1999 10.1999C10.1999 9.88164 10.0735 9.57642 9.84843 9.35137C9.62339 9.12633 9.31816 8.9999 8.9999 8.9999C8.68164 8.9999 8.37642 9.12633 8.15137 9.35137C7.92633 9.57642 7.7999 9.88164 7.7999 10.1999C7.7999 10.5182 7.92633 10.8234 8.15137 11.0484C8.37642 11.2735 8.68164 11.3999 8.9999 11.3999C9.31816 11.3999 9.62339 11.2735 9.84843 11.0484C10.0735 10.8234 10.1999 10.5182 10.1999 10.1999ZM10.1687 15.6635C10.0982 15.6275 10.0212 15.6058 9.94229 15.5996C9.86335 15.5935 9.78397 15.603 9.70873 15.6277C9.63349 15.6524 9.56388 15.6917 9.50391 15.7434C9.44394 15.7951 9.39481 15.8582 9.35933 15.929C9.32386 15.9998 9.30274 16.0769 9.29721 16.1559C9.29168 16.2349 9.30184 16.3142 9.32711 16.3893C9.35237 16.4643 9.39224 16.5336 9.44441 16.5932C9.49659 16.6527 9.56004 16.7014 9.6311 16.7363C10.3319 17.0867 11.1779 17.2499 11.9999 17.2499C12.8219 17.2499 13.6679 17.0867 14.3687 16.7363C14.4398 16.7014 14.5032 16.6527 14.5554 16.5932C14.6076 16.5336 14.6474 16.4643 14.6727 16.3893C14.698 16.3142 14.7081 16.2349 14.7026 16.1559C14.6971 16.0769 14.6759 15.9998 14.6405 15.929C14.605 15.8582 14.5559 15.7951 14.4959 15.7434C14.4359 15.6917 14.3663 15.6524 14.2911 15.6277C14.2158 15.603 14.1365 15.5935 14.0575 15.5996C13.9786 15.6058 13.9016 15.6275 13.8311 15.6635C13.3319 15.9131 12.6779 16.0499 11.9999 16.0499C11.3219 16.0499 10.6679 15.9131 10.1687 15.6635ZM21.5999 11.9999C21.5999 9.45382 20.5885 7.01203 18.7881 5.21168C16.9878 3.41133 14.546 2.3999 11.9999 2.3999C9.45382 2.3999 7.01203 3.41133 5.21168 5.21168C3.41133 7.01203 2.3999 9.45382 2.3999 11.9999C2.3999 14.546 3.41133 16.9878 5.21168 18.7881C7.01203 20.5885 9.45382 21.5999 11.9999 21.5999C14.546 21.5999 16.9878 20.5885 18.7881 18.7881C20.5885 16.9878 21.5999 14.546 21.5999 11.9999ZM3.5999 11.9999C3.5999 10.8968 3.81717 9.8045 4.23931 8.78536C4.66145 7.76623 5.28019 6.84022 6.06021 6.06021C6.84022 5.28019 7.76623 4.66145 8.78536 4.23931C9.8045 3.81717 10.8968 3.5999 11.9999 3.5999C13.103 3.5999 14.1953 3.81717 15.2144 4.23931C16.2336 4.66145 17.1596 5.28019 17.9396 6.06021C18.7196 6.84022 19.3384 7.76623 19.7605 8.78536C20.1826 9.8045 20.3999 10.8968 20.3999 11.9999C20.3999 14.2277 19.5149 16.3643 17.9396 17.9396C16.3643 19.5149 14.2277 20.3999 11.9999 20.3999C9.77208 20.3999 7.63551 19.5149 6.06021 17.9396C4.4849 16.3643 3.5999 14.2277 3.5999 11.9999Z" fill="#EBFF00"/>
</svg>
