<svg width="44" height="44" viewBox="0 0 44 44" fill="none" xmlns="http://www.w3.org/2000/svg">
<path fill-rule="evenodd" clip-rule="evenodd" d="M22 0C9.84867 0 0 9.8505 0 22C0 34.1495 9.84867 44 22 44C34.1495 44 44 34.1495 44 22C44 9.8505 34.1495 0 22 0ZM22.2567 34.8663C15.1653 34.8663 9.42333 29.1097 9.42333 22C9.42333 14.8903 15.1653 9.13367 22.2567 9.13367C25.7217 9.13367 28.6183 10.4115 30.8403 12.4868L27.2213 16.1132V16.1058C25.8738 14.8188 24.1652 14.1588 22.2567 14.1588C18.0217 14.1588 14.5805 17.7448 14.5805 21.9927C14.5805 26.2368 18.0217 29.8338 22.2567 29.8338C26.0993 29.8338 28.7137 27.6302 29.2527 24.6052H22.2567V19.5873H34.3292C34.4905 20.449 34.5767 21.3473 34.5767 22.2897C34.5767 29.6413 29.6688 34.8663 22.2567 34.8663Z" fill="white"/>
</svg>
