<svg width="30" height="30" viewBox="0 0 30 30" fill="none" xmlns="http://www.w3.org/2000/svg">
<path fill-rule="evenodd" clip-rule="evenodd" d="M12.5 27.5C9.84784 27.5 7.3043 26.4464 5.42893 24.5711C3.55357 22.6957 2.5 20.1522 2.5 17.5C2.5 14.8478 3.55357 12.3043 5.42893 10.4289C7.3043 8.55357 9.84784 7.5 12.5 7.5C15.1522 7.5 17.6957 8.55357 19.5711 10.4289C21.4464 12.3043 22.5 14.8478 22.5 17.5C22.5 20.1522 21.4464 22.6957 19.5711 24.5711C17.6957 26.4464 15.1522 27.5 12.5 27.5ZM12.5 25C13.4849 25 14.4602 24.806 15.3701 24.4291C16.2801 24.0522 17.1069 23.4997 17.8033 22.8033C18.4997 22.1069 19.0522 21.2801 19.4291 20.3701C19.806 19.4602 20 18.4849 20 17.5C20 16.5151 19.806 15.5398 19.4291 14.6299C19.0522 13.7199 18.4997 12.8931 17.8033 12.1967C17.1069 11.5003 16.2801 10.9478 15.3701 10.5709C14.4602 10.194 13.4849 10 12.5 10C10.5109 10 8.60322 10.7902 7.1967 12.1967C5.79018 13.6032 5 15.5109 5 17.5C5 19.4891 5.79018 21.3968 7.1967 22.8033C8.60322 24.2098 10.5109 25 12.5 25ZM16.25 18.75C16.25 19.7446 15.8549 20.6984 15.1517 21.4017C14.4484 22.1049 13.4946 22.5 12.5 22.5C11.5054 22.5 10.5516 22.1049 9.84835 21.4017C9.14509 20.6984 8.75 19.7446 8.75 18.75H16.25ZM10 16.25C10.3315 16.25 10.6495 16.1183 10.8839 15.8839C11.1183 15.6495 11.25 15.3315 11.25 15C11.25 14.6685 11.1183 14.3505 10.8839 14.1161C10.6495 13.8817 10.3315 13.75 10 13.75C9.66848 13.75 9.35054 13.8817 9.11612 14.1161C8.8817 14.3505 8.75 14.6685 8.75 15C8.75 15.3315 8.8817 15.6495 9.11612 15.8839C9.35054 16.1183 9.66848 16.25 10 16.25ZM15 16.25C14.6685 16.25 14.3505 16.1183 14.1161 15.8839C13.8817 15.6495 13.75 15.3315 13.75 15C13.75 14.6685 13.8817 14.3505 14.1161 14.1161C14.3505 13.8817 14.6685 13.75 15 13.75C15.3315 13.75 15.6495 13.8817 15.8839 14.1161C16.1183 14.3505 16.25 14.6685 16.25 15C16.25 15.3315 16.1183 15.6495 15.8839 15.8839C15.6495 16.1183 15.3315 16.25 15 16.25ZM23.2812 10C22.2475 9.775 19.0625 8.0125 19.0625 4.84375C19.0625 4.35184 19.2173 3.8724 19.5049 3.47334C19.7925 3.07428 20.1984 2.77583 20.6651 2.62027C21.1318 2.46472 21.6355 2.45994 22.1051 2.60661C22.5746 2.75328 22.9861 3.04397 23.2812 3.4375C23.5764 3.04397 23.9879 2.75328 24.4574 2.60661C24.927 2.45994 25.4307 2.46472 25.8974 2.62027C26.3641 2.77583 26.77 3.07428 27.0576 3.47334C27.3452 3.8724 27.5 4.35184 27.5 4.84375C27.5 8.0125 24.315 9.775 23.2812 10Z" fill="#38D600"/>
</svg>
