<svg width="60" height="60" viewBox="0 0 60 60" fill="none" xmlns="http://www.w3.org/2000/svg">
<path d="M3.75 41.25H56.25V45H3.75V41.25ZM3.75 48.75H56.25V52.5H3.75V48.75ZM45 18.75C44.2583 18.75 43.5333 18.9699 42.9166 19.382C42.2999 19.794 41.8193 20.3797 41.5354 21.0649C41.2516 21.7502 41.1774 22.5042 41.3221 23.2316C41.4668 23.959 41.8239 24.6272 42.3484 25.1517C42.8728 25.6761 43.541 26.0333 44.2684 26.1779C44.9958 26.3226 45.7498 26.2484 46.4351 25.9646C47.1203 25.6807 47.706 25.2001 48.118 24.5834C48.5301 23.9667 48.75 23.2417 48.75 22.5C48.75 21.5054 48.3549 20.5516 47.6516 19.8484C46.9484 19.1451 45.9946 18.75 45 18.75ZM30 30C28.5166 30 27.0666 29.5601 25.8332 28.736C24.5999 27.9119 23.6386 26.7406 23.0709 25.3701C22.5032 23.9997 22.3547 22.4917 22.6441 21.0368C22.9335 19.582 23.6478 18.2456 24.6967 17.1967C25.7456 16.1478 27.082 15.4335 28.5368 15.1441C29.9917 14.8547 31.4997 15.0032 32.8701 15.5709C34.2406 16.1386 35.4119 17.0999 36.236 18.3332C37.0601 19.5666 37.5 21.0166 37.5 22.5C37.4975 24.4884 36.7065 26.3946 35.3006 27.8006C33.8946 29.2065 31.9884 29.9975 30 30ZM30 18.75C29.2583 18.75 28.5333 18.9699 27.9166 19.382C27.2999 19.794 26.8193 20.3797 26.5355 21.0649C26.2516 21.7502 26.1774 22.5042 26.3221 23.2316C26.4667 23.959 26.8239 24.6272 27.3484 25.1517C27.8728 25.6761 28.541 26.0333 29.2684 26.1779C29.9958 26.3226 30.7498 26.2484 31.4351 25.9646C32.1203 25.6807 32.706 25.2001 33.118 24.5834C33.5301 23.9667 33.75 23.2417 33.75 22.5C33.749 21.5057 33.3536 20.5525 32.6506 19.8495C31.9475 19.1464 30.9943 18.751 30 18.75ZM15 18.75C14.2583 18.75 13.5333 18.9699 12.9166 19.382C12.2999 19.794 11.8193 20.3797 11.5355 21.0649C11.2516 21.7502 11.1774 22.5042 11.3221 23.2316C11.4667 23.959 11.8239 24.6272 12.3483 25.1517C12.8728 25.6761 13.541 26.0333 14.2684 26.1779C14.9958 26.3226 15.7498 26.2484 16.4351 25.9646C17.1203 25.6807 17.706 25.2001 18.118 24.5834C18.5301 23.9667 18.75 23.2417 18.75 22.5C18.75 21.5054 18.3549 20.5516 17.6516 19.8484C16.9484 19.1451 15.9946 18.75 15 18.75Z" fill="#2B3FA8"/>
<path d="M52.5 37.5H7.5C6.5062 37.4975 5.55381 37.1016 4.85108 36.3989C4.14836 35.6962 3.75248 34.7438 3.75 33.75V11.25C3.75248 10.2562 4.14836 9.30381 4.85108 8.60108C5.55381 7.89836 6.5062 7.50248 7.5 7.5H52.5C53.4938 7.50248 54.4462 7.89836 55.1489 8.60108C55.8516 9.30381 56.2475 10.2562 56.25 11.25V33.75C56.2485 34.7441 55.8529 35.6971 55.15 36.4C54.4471 37.1029 53.4941 37.4985 52.5 37.5ZM52.5 11.25H7.5V33.75H52.5V11.25Z" fill="#2B3FA8"/>
</svg>
