<svg width="60" height="60" viewBox="0 0 60 60" fill="none" xmlns="http://www.w3.org/2000/svg">
<path d="M7.5 11.57L30.0113 5L52.5 11.57V25.0425C52.5 39.2025 43.4375 50.5237 30.0038 55C16.5663 50.525 7.5 39.2 7.5 25.0362V11.57Z" stroke="#2B3FA8" stroke-width="4" stroke-linejoin="round"/>
<path d="M30 28.75C33.4518 28.75 36.25 25.9518 36.25 22.5C36.25 19.0482 33.4518 16.25 30 16.25C26.5482 16.25 23.75 19.0482 23.75 22.5C23.75 25.9518 26.5482 28.75 30 28.75Z" stroke="#2B3FA8" stroke-width="4" stroke-linecap="round" stroke-linejoin="round"/>
<path d="M40 38.75C40 36.0978 38.9464 33.5543 37.0711 31.6789C35.1957 29.8036 32.6522 28.75 30 28.75C27.3478 28.75 24.8043 29.8036 22.9289 31.6789C21.0536 33.5543 20 36.0978 20 38.75" stroke="#2B3FA8" stroke-width="4" stroke-linecap="round" stroke-linejoin="round"/>
</svg>
