<svg width="60" height="60" viewBox="0 0 60 60" fill="none" xmlns="http://www.w3.org/2000/svg">
<path d="M9.94247 24.6C10.043 23.347 10.6119 22.1779 11.5357 21.3254C12.4595 20.473 13.6705 19.9997 14.9275 20H45.0725C46.3295 19.9997 47.5405 20.473 48.4643 21.3254C49.3881 22.1779 49.9569 23.347 50.0575 24.6L52.065 49.6C52.1202 50.288 52.0324 50.9799 51.807 51.6323C51.5817 52.2847 51.2238 52.8834 50.7557 53.3906C50.2877 53.8979 49.7197 54.3027 49.0875 54.5797C48.4553 54.8567 47.7727 54.9998 47.0825 55H12.9175C12.2273 54.9998 11.5446 54.8567 10.9124 54.5797C10.2802 54.3027 9.71225 53.8979 9.24421 53.3906C8.77617 52.8834 8.41822 52.2847 8.1929 51.6323C7.96757 50.9799 7.87976 50.288 7.93497 49.6L9.94247 24.6V24.6Z" stroke="#2B3FA8" stroke-width="2" stroke-linecap="round" stroke-linejoin="round"/>
<path d="M40 27.5V15C40 12.3478 38.9464 9.8043 37.0711 7.92893C35.1957 6.05357 32.6522 5 30 5C27.3478 5 24.8043 6.05357 22.9289 7.92893C21.0536 9.8043 20 12.3478 20 15V27.5" stroke="#2B3FA8" stroke-width="2" stroke-linecap="round" stroke-linejoin="round"/>
</svg>
