<svg width="37" height="35" viewBox="0 0 37 35" fill="none" xmlns="http://www.w3.org/2000/svg">
<path d="M18.495 11.6642C15.098 11.6642 12.3258 14.2866 12.3258 17.5C12.3258 20.7134 15.098 23.3358 18.495 23.3358C21.892 23.3358 24.6642 20.7134 24.6642 17.5C24.6642 14.2866 21.892 11.6642 18.495 11.6642ZM36.9979 17.5C36.9979 15.0834 37.0211 12.6886 36.8776 10.2764C36.7341 7.47448 36.0584 4.9878 33.8925 2.93891C31.722 0.885649 29.0979 0.250846 26.1359 0.115129C23.5812 -0.0205877 21.0497 0.0013022 18.4997 0.0013022C15.945 0.0013022 13.4134 -0.0205877 10.8634 0.115129C7.90144 0.250846 5.27272 0.890027 3.10679 2.93891C0.936241 4.99217 0.265175 7.47448 0.121706 10.2764C-0.0217637 12.693 0.00137658 15.0877 0.00137658 17.5C0.00137658 19.9123 -0.0217637 22.3114 0.121706 24.7236C0.265175 27.5255 0.940869 30.0122 3.10679 32.0611C5.27734 34.1143 7.90144 34.7492 10.8634 34.8849C13.4181 35.0206 15.9496 34.9987 18.4997 34.9987C21.0543 34.9987 23.5859 35.0206 26.1359 34.8849C29.0979 34.7492 31.7266 34.11 33.8925 32.0611C36.0631 30.0078 36.7341 27.5255 36.8776 24.7236C37.0257 22.3114 36.9979 19.9166 36.9979 17.5ZM18.495 26.4792C13.2422 26.4792 9.00292 22.469 9.00292 17.5C9.00292 12.531 13.2422 8.52081 18.495 8.52081C23.7479 8.52081 27.9871 12.531 27.9871 17.5C27.9871 22.469 23.7479 26.4792 18.495 26.4792ZM28.3759 10.2501C27.1495 10.2501 26.1591 9.31322 26.1591 8.15306C26.1591 6.9929 27.1495 6.05602 28.3759 6.05602C29.6023 6.05602 30.5927 6.9929 30.5927 8.15306C30.5931 8.42854 30.536 8.70139 30.4247 8.95597C30.3134 9.21055 30.1502 9.44187 29.9442 9.63666C29.7383 9.83146 29.4938 9.98592 29.2247 10.0912C28.9555 10.1964 28.6671 10.2504 28.3759 10.2501Z" fill="white"/>
</svg>
