<svg width="37" height="20" viewBox="0 0 37 20" fill="none" xmlns="http://www.w3.org/2000/svg">
<path fill-rule="evenodd" clip-rule="evenodd" d="M32.9339 14.0196C32.9339 14.0196 35.9254 16.813 36.6654 18.1056C36.6798 18.1243 36.691 18.145 36.6987 18.1669C37.0002 18.6444 37.0742 19.0187 36.9262 19.2951C36.6765 19.7516 35.831 19.9808 35.5443 20H30.2569C29.8888 20 29.1229 19.909 28.1905 19.3003C27.4782 18.8298 26.7697 18.0549 26.0833 17.2975C25.0584 16.1728 24.1723 15.1968 23.275 15.1968C23.1617 15.1966 23.0492 15.2143 22.942 15.2493C22.2631 15.4522 21.401 16.367 21.401 18.8036C21.401 19.5662 20.7646 20 20.3187 20H17.8971C17.072 20 12.7763 19.7271 8.96713 15.9297C4.29957 11.2804 0.107467 1.95382 0.0667667 1.87161C-0.194084 1.26815 0.353517 0.939304 0.945518 0.939304H6.28462C7.00057 0.939304 7.23367 1.34861 7.39647 1.71593C7.58517 2.13748 8.28448 3.82368 9.43148 5.71803C11.2889 8.80007 12.4303 10.0542 13.3424 10.0542C13.5137 10.0547 13.6822 10.0125 13.8308 9.93178C15.0222 9.31258 14.8002 5.28949 14.7447 4.46038C14.7447 4.29946 14.7428 2.66398 14.1323 1.87336C13.6957 1.30663 12.952 1.08623 12.5025 1.00577C12.6227 0.84135 12.878 0.58947 13.2055 0.44079C14.0213 0.0559732 15.4958 0 16.9591 0H17.7713C19.3586 0.02099 19.7693 0.117194 20.3465 0.255379C21.5083 0.517754 21.5305 1.22967 21.4287 3.65401C21.3991 4.34669 21.3677 5.12681 21.3677 6.04513C21.3677 6.24103 21.3584 6.45968 21.3584 6.68183C21.3233 7.92548 21.277 9.32657 22.2057 9.90205C22.3262 9.97299 22.4653 10.0106 22.6072 10.0105C22.9291 10.0105 23.8929 10.0105 26.507 5.76876C27.654 3.8954 28.542 1.6862 28.603 1.52003C28.6548 1.42732 28.8102 1.1667 28.9989 1.06175C29.1332 0.994219 29.2835 0.960487 29.4355 0.963792H35.7163C36.4008 0.963792 36.8652 1.06175 36.9558 1.30663C37.1075 1.70369 36.9262 2.91586 34.0587 6.58212C33.5759 7.19258 33.1522 7.72083 32.7803 8.18261C30.1811 11.4081 30.1811 11.5708 32.9339 14.0196Z" fill="white"/>
</svg>
