<svg width="60" height="60" viewBox="0 0 60 60" fill="none" xmlns="http://www.w3.org/2000/svg">
<path d="M46.25 46.25L50 50M30 7.5V5V7.5ZM30 55V52.5V55ZM52.5 30H55H52.5ZM5 30H7.5H5ZM46.25 13.75L50 10L46.25 13.75ZM10 50L13.75 46.25L10 50ZM10 10L13.75 13.75L10 10Z" stroke="#2B3FA8" stroke-width="2" stroke-linecap="round"/>
<path d="M30 40C35.5228 40 40 35.5228 40 30C40 24.4772 35.5228 20 30 20C24.4772 20 20 24.4772 20 30C20 35.5228 24.4772 40 30 40Z" stroke="#2B3FA8" stroke-width="2" stroke-linecap="round"/>
</svg>
