<svg width="57" height="57" viewBox="0 0 57 57" fill="none" xmlns="http://www.w3.org/2000/svg">
<path d="M4.51725 38.8258V32.0624L0 19.9446H2.27288L5.59313 29.2979L9.42637 17.9888H11.514L6.59597 32.1372V38.8276L4.51725 38.8258ZM17.9051 38.8258H16.1613C16.0739 38.4778 16.0144 38.1234 15.9832 37.766H15.8549C15.2707 38.5088 14.5172 39.0111 13.3487 39.0111C11.4552 39.0111 10.1567 37.5807 10.1567 34.9659C10.1567 32.1159 11.6155 30.3186 15.3437 30.3186H15.6305V29.5295C15.6305 27.7839 15.0462 27.0429 13.8866 27.0429C12.8268 27.0429 11.9272 27.5986 11.2415 28.2025L10.8425 26.3838C11.4552 25.8833 12.6718 25.3275 14.0149 25.3275C16.3733 25.3275 17.6629 26.3304 17.6629 29.558V35.812C17.6629 37.082 17.7911 38.1971 17.8927 38.8276L17.9051 38.8258ZM15.6412 31.8861H15.3989C12.8286 31.8861 12.2835 33.0172 12.2835 34.7343C12.2835 36.2662 12.784 37.2655 13.8314 37.2655C14.5457 37.2655 15.2618 36.7934 15.6322 36.2092L15.6412 31.8861ZM22.2941 38.8258H20.235V25.4754H22.2941V26.6439H22.4224C22.7947 26.1433 23.7975 25.3257 25.039 25.3257C26.7829 25.3257 27.702 26.3001 27.702 28.3325V38.8258H25.6144V28.5177C25.6144 27.5149 25.1708 27.164 24.3728 27.164C23.5089 27.164 22.7768 27.832 22.2941 28.4892V38.8258ZM29.7415 32.6752C29.7415 27.7304 31.5887 25.3275 34.2517 25.3275C34.8911 25.3275 35.5502 25.5413 35.9492 25.8281V19.9446H38.0083V38.8258H36.4764L36.3108 37.766H36.1808C35.6054 38.5088 34.8644 39.0111 33.7796 39.0111C31.163 39.0111 29.7415 36.7934 29.7415 32.6752ZM35.951 27.6467C35.5324 27.2281 35.0799 27.0144 34.3906 27.0144C32.7305 27.0144 31.9325 29.5295 31.9325 32.2459C31.9325 35.3649 32.5167 37.2637 34.029 37.2637C35.0603 37.2637 35.6054 36.7631 35.951 36.2359V27.6467ZM44.5117 39.0111C41.7668 39.0111 40.0674 36.8219 40.0674 32.7286C40.0674 28.4447 41.2555 25.3257 44.0842 25.3257C46.3018 25.3257 47.7482 26.9859 47.7482 31.5156V32.6467H42.2103C42.2103 35.6623 43.0564 37.2405 44.6969 37.2405C45.8583 37.2405 46.7115 36.7204 47.2316 36.3499L47.7143 37.9263C46.8036 38.6447 45.6733 39.0277 44.5134 39.0111H44.5117ZM42.2388 30.9491H45.6445C45.6445 28.6763 45.2723 27.0161 44.0842 27.0161C42.823 27.0161 42.3795 28.5747 42.2299 30.9491H42.2388ZM56.7132 25.5128L54.2355 31.7471L57 38.8276H54.8678L52.7962 33.3342L50.7941 38.8276H48.7617L51.5351 31.9324L49.0218 25.5128H51.1646L52.8907 30.3453L54.7075 25.5128H56.7132Z" fill="#FF0000"/>
</svg>
